<svg width="50" height="35" viewBox="0 0 50 35" fill="none" xmlns="http://www.w3.org/2000/svg">
<path d="M10.8696 16.0417V16.0287V3.02775L10.7391 2.93875H10.7283L7.76087 0.91875C5.94565 -0.32125 3.3587 -0.261249 1.75 1.19875C0.673913 2.17875 0 3.53875 0 5.04875V8.65075L10.8696 16.0417ZM39.1304 16.0287V16.0417L50 8.65075V5.04875C50 3.55875 49.3478 2.19875 48.2826 1.21875C46.6956 -0.23825 44.1902 -0.40925 42.387 0.81575L39.2609 2.93875L39.1304 3.02775V16.0287ZM13.0435 17.5068L24.3543 25.1988C24.738 25.4598 25.263 25.4598 25.6467 25.1988L36.9565 17.5068V4.50575L25 12.6388L13.0435 4.50575V17.5068ZM39.1304 18.5278V33.6388C39.1304 34.1908 39.6174 34.6388 40.2174 34.6388H47.2826C48.7837 34.6388 50 33.5198 50 32.1388V11.1357L39.1304 18.5278ZM10.8696 18.5278L0 11.1357V32.1388C0 33.5198 1.2163 34.6388 2.71739 34.6388H9.78261C10.3826 34.6388 10.8696 34.1908 10.8696 33.6388V18.5278Z" fill="white"/>
</svg>
